<svg version="1.1" id="Layer_1" xmlns="http://www.w3.org/2000/svg" viewBox="0 0 244 260">
<path d="M151.1,82c-2.6-4.9-6.5-8.9-11.3-11.7l43.5-61.3L173.6,2l-45.6,64.2c-1.2-0.1-2.4-0.2-3.7-0.2c-1.3,0-2.6,0.1-3.9,0.3
	L86.8,14.9l-10,6.6l31.9,48.8c-4.7,2.8-8.6,6.9-11.2,11.7H2v160h23.9v16h192v-16H242V82H151.1z M185.9,218h-160V106h160V218z
	 M213.9,218c-5.5,0-10-4.5-10-10s4.5-10,10-10s10,4.5,10,10S219.4,218,213.9,218z M213.9,179.8c-5.5,0-10-4.5-10-10s4.5-10,10-10
	s10,4.5,10,10S219.4,179.8,213.9,179.8z"/>
</svg>